<mxfile host="65bd71144e">
    <diagram id="oFFX3POLaC2inU3LoE7P" name="Page-1">
        <mxGraphModel dx="1746" dy="707" grid="1" gridSize="10" guides="1" tooltips="1" connect="1" arrows="1" fold="1" page="1" pageScale="1" pageWidth="850" pageHeight="1100" math="0" shadow="0">
            <root>
                <mxCell id="0"/>
                <mxCell id="1" parent="0"/>
                <mxCell id="4" value="Writing processing" style="ellipse;shape=cloud;whiteSpace=wrap;html=1;strokeWidth=4;fontFamily=Times New Roman;fontSize=18;fillColor=none;" parent="1" vertex="1">
                    <mxGeometry x="-9" y="115" width="210" height="80" as="geometry"/>
                </mxCell>
                <mxCell id="10" value="&lt;font style=&quot;font-size: 19px;&quot;&gt;Input(xyz,cif,poscar)&lt;/font&gt;" style="shape=step;perimeter=stepPerimeter;whiteSpace=wrap;html=1;fixedSize=1;labelBorderColor=none;strokeWidth=4;fontFamily=Times New Roman;fontSize=17;fillColor=none;" parent="1" vertex="1">
                    <mxGeometry x="41" y="220" width="210" height="80" as="geometry"/>
                </mxCell>
                <mxCell id="11" value="Processing" style="shape=step;perimeter=stepPerimeter;whiteSpace=wrap;html=1;fixedSize=1;labelBorderColor=none;strokeWidth=4;fontFamily=Times New Roman;fontSize=19;fillColor=none;" parent="1" vertex="1">
                    <mxGeometry x="251" y="220" width="190" height="80" as="geometry"/>
                </mxCell>
                <mxCell id="12" value="output(FEFF input file)" style="shape=step;perimeter=stepPerimeter;whiteSpace=wrap;html=1;fixedSize=1;labelBorderColor=none;strokeWidth=4;fontFamily=Times New Roman;fontSize=19;fillColor=none;" parent="1" vertex="1">
                    <mxGeometry x="561" y="220" width="255" height="80" as="geometry"/>
                </mxCell>
                <mxCell id="13" value="Running processing" style="ellipse;shape=cloud;whiteSpace=wrap;html=1;strokeWidth=4;fontFamily=Times New Roman;fontSize=18;fillColor=none;" parent="1" vertex="1">
                    <mxGeometry x="-9" y="440" width="240" height="80" as="geometry"/>
                </mxCell>
                <mxCell id="17" value="Processing" style="swimlane;fontStyle=0;childLayout=stackLayout;horizontal=1;startSize=30;horizontalStack=0;resizeParent=1;resizeParentMax=0;resizeLast=0;collapsible=1;marginBottom=0;whiteSpace=wrap;html=1;labelBorderColor=none;strokeWidth=4;fontFamily=Times New Roman;fontSize=19;fillColor=none;" parent="1" vertex="1">
                    <mxGeometry x="211" y="320" width="220" height="90" as="geometry"/>
                </mxCell>
                <mxCell id="18" value="calculate inequivalent sites" style="text;strokeColor=none;fillColor=none;align=left;verticalAlign=middle;spacingLeft=4;spacingRight=4;overflow=hidden;points=[[0,0.5],[1,0.5]];portConstraint=eastwest;rotatable=0;whiteSpace=wrap;html=1;labelBorderColor=none;strokeWidth=4;fontFamily=Times New Roman;fontSize=19;" parent="17" vertex="1">
                    <mxGeometry y="30" width="220" height="30" as="geometry"/>
                </mxCell>
                <mxCell id="19" value="save FEFF_cal object" style="text;strokeColor=none;fillColor=none;align=left;verticalAlign=middle;spacingLeft=4;spacingRight=4;overflow=hidden;points=[[0,0.5],[1,0.5]];portConstraint=eastwest;rotatable=0;whiteSpace=wrap;html=1;labelBorderColor=none;strokeWidth=4;fontFamily=Times New Roman;fontSize=19;" parent="17" vertex="1">
                    <mxGeometry y="60" width="220" height="30" as="geometry"/>
                </mxCell>
                <mxCell id="21" value="FEFF_input files" style="shape=cylinder3;whiteSpace=wrap;html=1;boundedLbl=1;backgroundOutline=1;size=15;labelBorderColor=none;strokeWidth=4;fontFamily=Times New Roman;fontSize=19;fillColor=none;" parent="1" vertex="1">
                    <mxGeometry x="41" y="530" width="110" height="110" as="geometry"/>
                </mxCell>
                <mxCell id="26" value="&lt;font style=&quot;font-size: 13px;&quot;&gt;Cofiguration files(toml)&lt;/font&gt;" style="shape=card;whiteSpace=wrap;html=1;labelBorderColor=none;strokeWidth=4;fontFamily=Times New Roman;fontSize=19;fillColor=none;" parent="1" vertex="1">
                    <mxGeometry x="50" y="810" width="80" height="90" as="geometry"/>
                </mxCell>
                <mxCell id="29" value="&lt;font style=&quot;font-size: 16px;&quot;&gt;FEFF_cal object&lt;/font&gt;" style="shape=ext;double=1;rounded=1;whiteSpace=wrap;html=1;shadow=0;labelBorderColor=none;sketch=0;strokeWidth=1;fontFamily=Times New Roman;fontSize=13;fillColor=none;" parent="1" vertex="1">
                    <mxGeometry x="215" y="680" width="140" height="80" as="geometry"/>
                </mxCell>
                <mxCell id="32" value="" style="edgeStyle=elbowEdgeStyle;elbow=vertical;endArrow=classic;html=1;curved=0;rounded=0;endSize=8;startSize=8;fontFamily=Times New Roman;fontSize=16;entryX=0.5;entryY=0;entryDx=0;entryDy=0;exitX=1;exitY=0.5;exitDx=0;exitDy=0;exitPerimeter=0;" parent="1" source="21" target="29" edge="1">
                    <mxGeometry width="50" height="50" relative="1" as="geometry">
                        <mxPoint x="175" y="720" as="sourcePoint"/>
                        <mxPoint x="225" y="670" as="targetPoint"/>
                        <Array as="points">
                            <mxPoint x="220" y="585"/>
                            <mxPoint x="205" y="720"/>
                        </Array>
                    </mxGeometry>
                </mxCell>
                <mxCell id="33" value="" style="edgeStyle=elbowEdgeStyle;elbow=vertical;endArrow=classic;html=1;curved=0;rounded=0;endSize=8;startSize=8;fontFamily=Times New Roman;fontSize=16;exitX=1;exitY=0.5;exitDx=0;exitDy=0;exitPerimeter=0;entryX=0.5;entryY=1;entryDx=0;entryDy=0;" parent="1" source="26" target="29" edge="1">
                    <mxGeometry width="50" height="50" relative="1" as="geometry">
                        <mxPoint x="115" y="680" as="sourcePoint"/>
                        <mxPoint x="165" y="630" as="targetPoint"/>
                        <Array as="points">
                            <mxPoint x="220" y="855"/>
                        </Array>
                    </mxGeometry>
                </mxCell>
                <mxCell id="34" value="Run" style="shape=step;perimeter=stepPerimeter;whiteSpace=wrap;html=1;fixedSize=1;shadow=0;labelBorderColor=none;sketch=0;strokeWidth=4;fontFamily=Times New Roman;fontSize=16;fillColor=none;" parent="1" vertex="1">
                    <mxGeometry x="441" y="220" width="120" height="80" as="geometry"/>
                </mxCell>
                <mxCell id="35" value="Run(call)" style="swimlane;fontStyle=0;childLayout=stackLayout;horizontal=1;startSize=30;horizontalStack=0;resizeParent=1;resizeParentMax=0;resizeLast=0;collapsible=1;marginBottom=0;whiteSpace=wrap;html=1;shadow=0;labelBorderColor=none;sketch=0;strokeWidth=4;fontFamily=Times New Roman;fontSize=16;fillColor=none;" parent="1" vertex="1">
                    <mxGeometry x="441" y="320" width="180" height="60" as="geometry"/>
                </mxCell>
                <mxCell id="36" value="FEFF_cal.FEFFinp_gen" style="text;strokeColor=none;fillColor=none;align=left;verticalAlign=middle;spacingLeft=4;spacingRight=4;overflow=hidden;points=[[0,0.5],[1,0.5]];portConstraint=eastwest;rotatable=0;whiteSpace=wrap;html=1;shadow=0;labelBorderColor=none;sketch=0;strokeWidth=4;fontFamily=Times New Roman;fontSize=16;" parent="35" vertex="1">
                    <mxGeometry y="30" width="180" height="30" as="geometry"/>
                </mxCell>
                <mxCell id="40" value="FEFF_cal.particle_run" style="shape=ext;double=1;rounded=1;whiteSpace=wrap;html=1;shadow=0;labelBorderColor=none;sketch=0;strokeWidth=1;fontFamily=Times New Roman;fontSize=16;fillColor=none;" parent="1" vertex="1">
                    <mxGeometry x="435" y="680" width="170" height="80" as="geometry"/>
                </mxCell>
                <mxCell id="41" value="" style="endArrow=classic;html=1;fontFamily=Times New Roman;fontSize=16;exitX=1;exitY=0.5;exitDx=0;exitDy=0;entryX=0;entryY=0.5;entryDx=0;entryDy=0;strokeWidth=4;" parent="1" source="29" target="40" edge="1">
                    <mxGeometry width="50" height="50" relative="1" as="geometry">
                        <mxPoint x="425" y="630" as="sourcePoint"/>
                        <mxPoint x="475" y="580" as="targetPoint"/>
                    </mxGeometry>
                </mxCell>
                <mxCell id="42" value="" style="endArrow=classic;html=1;fontFamily=Times New Roman;fontSize=16;exitX=1;exitY=0.5;exitDx=0;exitDy=0;entryX=0;entryY=0.5;entryDx=0;entryDy=0;strokeWidth=4;" parent="1" target="43" edge="1">
                    <mxGeometry width="50" height="50" relative="1" as="geometry">
                        <mxPoint x="605" y="719.5" as="sourcePoint"/>
                        <mxPoint x="685" y="719.5" as="targetPoint"/>
                    </mxGeometry>
                </mxCell>
                <mxCell id="43" value="json files" style="shape=cylinder3;whiteSpace=wrap;html=1;boundedLbl=1;backgroundOutline=1;size=15;shadow=0;labelBorderColor=none;sketch=0;strokeWidth=3;fontFamily=Times New Roman;fontSize=16;fillColor=none;" parent="1" vertex="1">
                    <mxGeometry x="643.5" y="679.5" width="90" height="80" as="geometry"/>
                </mxCell>
                <mxCell id="44" value="&lt;font style=&quot;font-size: 13px;&quot;&gt;template file&lt;/font&gt;" style="shape=card;whiteSpace=wrap;html=1;labelBorderColor=none;strokeWidth=4;fontFamily=Times New Roman;fontSize=19;fillColor=none;" parent="1" vertex="1">
                    <mxGeometry x="50" y="674.5" width="80" height="90" as="geometry"/>
                </mxCell>
                <mxCell id="46" value="" style="endArrow=classic;html=1;strokeWidth=2;fontFamily=Times New Roman;fontSize=16;startSize=3;endSize=0;exitX=1;exitY=0.5;exitDx=0;exitDy=0;exitPerimeter=0;entryX=0;entryY=0.5;entryDx=0;entryDy=0;" parent="1" source="44" target="29" edge="1">
                    <mxGeometry width="50" height="50" relative="1" as="geometry">
                        <mxPoint x="151" y="744.5" as="sourcePoint"/>
                        <mxPoint x="201" y="694.5" as="targetPoint"/>
                    </mxGeometry>
                </mxCell>
                <mxCell id="47" value="&lt;span style=&quot;font-size: 16px;&quot;&gt;&lt;font face=&quot;Times New Roman&quot;&gt;Run(call)&lt;/font&gt;&lt;/span&gt;" style="swimlane;fontStyle=0;childLayout=stackLayout;horizontal=1;startSize=30;horizontalStack=0;resizeParent=1;resizeParentMax=0;resizeLast=0;collapsible=1;marginBottom=0;whiteSpace=wrap;html=1;strokeWidth=5;" vertex="1" parent="1">
                    <mxGeometry x="450" y="770" width="140" height="90" as="geometry"/>
                </mxCell>
                <mxCell id="48" value="&lt;font face=&quot;Times New Roman&quot; style=&quot;font-size: 16px;&quot;&gt;run from fresh&lt;/font&gt;" style="text;strokeColor=none;fillColor=none;align=left;verticalAlign=middle;spacingLeft=4;spacingRight=4;overflow=hidden;points=[[0,0.5],[1,0.5]];portConstraint=eastwest;rotatable=0;whiteSpace=wrap;html=1;" vertex="1" parent="47">
                    <mxGeometry y="30" width="140" height="30" as="geometry"/>
                </mxCell>
                <mxCell id="49" value="&lt;font face=&quot;Times New Roman&quot; style=&quot;font-size: 16px;&quot;&gt;run from restart&lt;/font&gt;" style="text;strokeColor=none;fillColor=none;align=left;verticalAlign=middle;spacingLeft=4;spacingRight=4;overflow=hidden;points=[[0,0.5],[1,0.5]];portConstraint=eastwest;rotatable=0;whiteSpace=wrap;html=1;" vertex="1" parent="47">
                    <mxGeometry y="60" width="140" height="30" as="geometry"/>
                </mxCell>
                <mxCell id="52" value="" style="endArrow=classic;html=1;fontFamily=Times New Roman;fontSize=16;exitX=0.5;exitY=1;exitDx=0;exitDy=0;entryX=0.5;entryY=0;entryDx=0;entryDy=0;strokeWidth=4;" edge="1" parent="1" source="12" target="57">
                    <mxGeometry width="50" height="50" relative="1" as="geometry">
                        <mxPoint x="570" y="540" as="sourcePoint"/>
                        <mxPoint x="688.5" y="460" as="targetPoint"/>
                    </mxGeometry>
                </mxCell>
                <mxCell id="53" value="" style="endArrow=classic;html=1;strokeWidth=4;fontFamily=Times New Roman;fontSize=16;exitX=0.5;exitY=0;exitDx=0;exitDy=0;exitPerimeter=0;entryX=0.5;entryY=1;entryDx=0;entryDy=0;" edge="1" parent="1" source="43" target="57">
                    <mxGeometry width="50" height="50" relative="1" as="geometry">
                        <mxPoint x="570" y="540" as="sourcePoint"/>
                        <mxPoint x="688.5" y="510" as="targetPoint"/>
                    </mxGeometry>
                </mxCell>
                <mxCell id="57" value="Check.py" style="rhombus;whiteSpace=wrap;html=1;strokeWidth=5;fontFamily=Times New Roman;fontSize=16;" vertex="1" parent="1">
                    <mxGeometry x="601.75" y="460" width="173.5" height="50" as="geometry"/>
                </mxCell>
                <mxCell id="58" value="" style="edgeStyle=segmentEdgeStyle;endArrow=classic;html=1;curved=0;rounded=0;endSize=8;startSize=8;strokeWidth=4;fontFamily=Times New Roman;fontSize=16;exitX=0;exitY=0.5;exitDx=0;exitDy=0;entryX=0.543;entryY=-0.027;entryDx=0;entryDy=0;entryPerimeter=0;fillColor=#60a917;strokeColor=#2D7600;" edge="1" parent="1" source="57" target="40">
                    <mxGeometry width="50" height="50" relative="1" as="geometry">
                        <mxPoint x="440" y="580" as="sourcePoint"/>
                        <mxPoint x="490" y="530" as="targetPoint"/>
                    </mxGeometry>
                </mxCell>
                <mxCell id="59" value="1. no output files&lt;br&gt;2. output files not complete&amp;nbsp;" style="text;html=1;align=center;verticalAlign=middle;resizable=0;points=[];autosize=1;strokeColor=none;fillColor=none;fontSize=16;fontFamily=Times New Roman;" vertex="1" parent="1">
                    <mxGeometry x="420" y="430" width="200" height="50" as="geometry"/>
                </mxCell>
                <mxCell id="60" value="" style="endArrow=classic;html=1;strokeWidth=4;fontFamily=Times New Roman;fontSize=16;exitX=1;exitY=0.5;exitDx=0;exitDy=0;" edge="1" parent="1" source="57" target="61">
                    <mxGeometry width="50" height="50" relative="1" as="geometry">
                        <mxPoint x="600" y="570" as="sourcePoint"/>
                        <mxPoint x="840" y="485" as="targetPoint"/>
                    </mxGeometry>
                </mxCell>
                <mxCell id="61" value="Finished!" style="rounded=0;whiteSpace=wrap;html=1;strokeWidth=5;fontFamily=Times New Roman;fontSize=16;" vertex="1" parent="1">
                    <mxGeometry x="850" y="455" width="120" height="60" as="geometry"/>
                </mxCell>
            </root>
        </mxGraphModel>
    </diagram>
</mxfile>